{
	"asset":{
		"generator":"Khronos glTF Blender I/O v4.3.47",
		"version":"2.0"
	},
	"scene":0,
	"scenes":[
		{
			"name":"Scene",
			"nodes":[
				0
			]
		}
	],
	"nodes":[
		{
			"mesh":0,
			"name":"Cylinder",
			"scale":[
				1,
				0.20000000298023224,
				1
			],
			"translation":[
				0,
				0.14505255222320557,
				0
			]
		}
	],
	"materials":[
		{
			"doubleSided":true,
			"name":"\u041c\u0430\u0442\u0435\u0440\u0438\u0430\u043b.007"
		},
		{
			"doubleSided":true,
			"name":"\u041c\u0430\u0442\u0435\u0440\u0438\u0430\u043b.013"
		},
		{
			"doubleSided":true,
			"name":"\u041c\u0430\u0442\u0435\u0440\u0438\u0430\u043b.fade.001"
		},
		{
			"doubleSided":true,
			"name":"\u041c\u0430\u0442\u0435\u0440\u0438\u0430\u043b.002",
			"pbrMetallicRoughness":{
				"baseColorFactor":[
					0.800000011920929,
					0.800000011920929,
					0.800000011920929,
					1
				],
				"metallicFactor":0.2628398835659027,
				"roughnessFactor":0.06163141131401062
			}
		}
	],
	"meshes":[
		{
			"name":"\u0426\u0438\u043b\u0438\u043d\u0434\u0440.001",
			"primitives":[
				{
					"attributes":{
						"POSITION":0,
						"NORMAL":1,
						"TEXCOORD_0":2,
						"TEXCOORD_1":3,
						"TANGENT":4
					},
					"indices":5,
					"material":0
				},
				{
					"attributes":{
						"POSITION":0,
						"NORMAL":1,
						"TEXCOORD_0":2,
						"TEXCOORD_1":3,
						"TANGENT":4
					},
					"indices":6,
					"material":1
				},
				{
					"attributes":{
						"POSITION":0,
						"NORMAL":1,
						"TEXCOORD_0":2,
						"TEXCOORD_1":3,
						"TANGENT":4
					},
					"indices":7,
					"material":2
				},
				{
					"attributes":{
						"POSITION":0,
						"NORMAL":1,
						"TEXCOORD_0":2,
						"TEXCOORD_1":3,
						"TANGENT":4
					},
					"indices":8,
					"material":3
				},
				{
					"attributes":{
						"POSITION":9
					},
					"material":0,
					"mode":0
				}
			]
		}
	],
	"accessors":[
		{
			"bufferView":0,
			"componentType":5126,
			"count":13940,
			"max":[
				0.9921562671661377,
				1.1466256380081177,
				0.9921562671661377
			],
			"min":[
				-0.9921562671661377,
				-1.1466256380081177,
				-0.9921563863754272
			],
			"type":"VEC3"
		},
		{
			"bufferView":1,
			"componentType":5126,
			"count":13940,
			"type":"VEC3"
		},
		{
			"bufferView":2,
			"componentType":5126,
			"count":13940,
			"type":"VEC2"
		},
		{
			"bufferView":3,
			"componentType":5126,
			"count":13940,
			"type":"VEC2"
		},
		{
			"bufferView":4,
			"componentType":5126,
			"count":13940,
			"type":"VEC4"
		},
		{
			"bufferView":5,
			"componentType":5123,
			"count":13056,
			"type":"SCALAR"
		},
		{
			"bufferView":6,
			"componentType":5123,
			"count":13056,
			"type":"SCALAR"
		},
		{
			"bufferView":7,
			"componentType":5123,
			"count":9216,
			"type":"SCALAR"
		},
		{
			"bufferView":8,
			"componentType":5123,
			"count":23484,
			"type":"SCALAR"
		},
		{
			"bufferView":9,
			"componentType":5126,
			"count":5,
			"max":[
				0.48543858528137207,
				0.8199999332427979,
				0.05662494897842407
			],
			"min":[
				-0.34230339527130127,
				-1.3458248376846313,
				-1.1028409004211426
			],
			"type":"VEC3"
		}
	],
	"bufferViews":[
		{
			"buffer":0,
			"byteLength":167280,
			"byteOffset":0,
			"target":34962
		},
		{
			"buffer":0,
			"byteLength":167280,
			"byteOffset":167280,
			"target":34962
		},
		{
			"buffer":0,
			"byteLength":111520,
			"byteOffset":334560,
			"target":34962
		},
		{
			"buffer":0,
			"byteLength":111520,
			"byteOffset":446080,
			"target":34962
		},
		{
			"buffer":0,
			"byteLength":223040,
			"byteOffset":557600,
			"target":34962
		},
		{
			"buffer":0,
			"byteLength":26112,
			"byteOffset":780640,
			"target":34963
		},
		{
			"buffer":0,
			"byteLength":26112,
			"byteOffset":806752,
			"target":34963
		},
		{
			"buffer":0,
			"byteLength":18432,
			"byteOffset":832864,
			"target":34963
		},
		{
			"buffer":0,
			"byteLength":46968,
			"byteOffset":851296,
			"target":34963
		},
		{
			"buffer":0,
			"byteLength":60,
			"byteOffset":898264,
			"target":34962
		}
	],
	"buffers":[
		{
			"byteLength":898324,
			"uri":"coinflip.bin"
		}
	]
}
