<?xml version="1.0" standalone="no"?>
<!DOCTYPE svg PUBLIC "-//W3C//DTD SVG 20010904//EN"
 "http://www.w3.org/TR/2001/REC-SVG-20010904/DTD/svg10.dtd">
<svg version="1.0" xmlns="http://www.w3.org/2000/svg"
 width="512.000000pt" height="512.000000pt" viewBox="0 0 512.000000 512.000000"
 preserveAspectRatio="xMidYMid meet">
<metadata>
Created by potrace 1.14, written by Peter Selinger 2001-2017
</metadata>
<g transform="translate(0.000000,512.000000) scale(0.100000,-0.100000)"
fill="#000000" stroke="none">
<path d="M753 4950 c-134 -27 -260 -91 -361 -185 -97 -90 -160 -191 -209 -335
-17 -53 -18 -133 -20 -1830 -3 -1926 -5 -1831 52 -1971 83 -205 251 -354 480
-425 58 -18 131 -19 1870 -19 l1810 0 80 28 c44 16 112 47 150 69 64 38 185
148 228 208 38 52 88 168 106 245 19 77 20 138 20 1835 0 1516 -2 1764 -15
1818 -66 280 -278 494 -554 558 -46 11 -3583 14 -3637 4z"/>
</g>
</svg>
