<svg width="36" height="36" viewBox="0 0 36 36" fill="none" xmlns="http://www.w3.org/2000/svg">
<path d="M18 36C27.9411 36 36 27.9411 36 18C36 8.05886 27.9411 0 18 0C8.05886 0 0 8.05886 0 18C0 27.9411 8.05886 36 18 36Z" fill="#000000"/>
<path d="M24.1459 10.0464H11.8534C9.59323 10.0464 8.16069 12.4844 9.29777 14.4554L16.8843 27.6049C17.3793 28.4635 18.62 28.4635 19.115 27.6049L26.7031 14.4554C27.8386 12.4876 26.4061 10.0464 24.1475 10.0464H24.1459ZM16.8781 23.6615L15.2259 20.4639L11.2393 13.3338C10.9763 12.8774 11.3011 12.2926 11.8518 12.2926H16.8765V23.6631L16.8781 23.6615ZM24.7569 13.3322L20.7719 20.4654L19.1197 23.6615V12.2911H24.1444C24.6951 12.2911 25.0199 12.8759 24.7569 13.3322Z" fill="white"/>
</svg>
