<svg width="72" height="78" viewBox="0 0 72 78" fill="none" xmlns="http://www.w3.org/2000/svg">
<g id="ton_symbol 2">
<path id="Vector" d="M36 78C55.8823 78 72 61.8823 72 42C72 22.1177 55.8823 6 36 6C16.1177 6 0 22.1177 0 42C0 61.8823 16.1177 78 36 78Z" fill="#464646"/>
<path id="Vector_2" d="M36 0C16.1177 0 0 16.1177 0 36C0 55.8823 16.1177 72 36 72C55.8823 72 72 55.8823 72 36C72 16.1177 55.8823 0 36 0Z" fill="black"/>
<path id="Vector_3" d="M23.7082 51.9072L48.2932 51.9072C52.8135 51.9072 55.6786 47.0312 53.4045 43.0893L38.2315 16.7903C37.2413 15.0731 34.76 15.0731 33.7699 16.7903L18.5938 43.0893C16.3228 47.0249 19.1879 51.9072 23.7051 51.9072H23.7082ZM38.2438 24.677L41.5482 31.0722L49.5215 45.3325C50.0475 46.2452 49.3978 47.4148 48.2963 47.4148H38.2469V24.6739L38.2438 24.677ZM22.4861 45.3356L30.4562 31.0692L33.7607 24.677V47.4179H23.7113C22.6098 47.4179 21.9601 46.2483 22.4861 45.3356Z" fill="white"/>
</g>
</svg>
