<svg width="72" height="78" viewBox="0 0 72 78" fill="none" xmlns="http://www.w3.org/2000/svg">
<g id="ton_symbol 1">
<path id="Vector" d="M36 78C55.8823 78 72 61.8823 72 42C72 22.1177 55.8823 6 36 6C16.1177 6 0 22.1177 0 42C0 61.8823 16.1177 78 36 78Z" fill="#44BDFF"/>
<path id="Vector_2" d="M36 72C55.8823 72 72 55.8823 72 36C72 16.1177 55.8823 0 36 0C16.1177 0 0 16.1177 0 36C0 55.8823 16.1177 72 36 72Z" fill="#0098EA"/>
<path id="Vector_3" d="M48.2918 20.0928H23.7068C19.1865 20.0928 16.3214 24.9688 18.5955 28.9107L33.7685 55.2097C34.7587 56.9269 37.24 56.9269 38.2301 55.2097L53.4061 28.9107C55.6772 24.9751 52.8121 20.0928 48.2949 20.0928H48.2918ZM33.7562 47.323L30.4518 40.9278L22.4785 26.6675C21.9525 25.7548 22.6022 24.5852 23.7037 24.5852H33.7531V47.3261L33.7562 47.323ZM49.5139 26.6644L41.5438 40.9308L38.2393 47.323V24.5821H48.2887C49.3902 24.5821 50.0399 25.7517 49.5139 26.6644Z" fill="white"/>
</g>
</svg>
